<svg xmlns="http://www.w3.org/2000/svg" viewBox="0 0 30 30">
<style type="text/css">
	.icon{fill:#009a3b;}
</style>
	<path class="icon" d="M25.21,15c0,6-4.687,10.523-10.448,10.523c-2.179,0-4.265-0.649-6.008-1.838l3.216-3.069
		c0.297-0.282,0.392-0.662,0.24-1.042C12.058,19.193,11.69,19,11.281,19H2c-0.552,0-1,0.324-1,0.876v8.813
		c0,0.399,0.238,0.761,0.605,0.918c0.127,0.055,0.262,0.08,0.395,0.08c0.251,0,0.499-0.095,0.688-0.274l3.133-2.976
		c2.527,1.975,5.66,3.105,8.94,3.105C22.729,29.544,29.21,23,29.21,15H25.21z"/>
	<path class="icon" d="M14.762,4.627c2.331,0,4.55,0.816,6.357,2.244l-3.188,3.331c-0.275,0.29-0.353,0.77-0.195,1.138
		c0.158,0.368,0.52,0.66,0.92,0.66H28c0.553,0,1-0.572,1-1.124V1.063c0-0.409-0.249-0.777-0.628-0.929
		c-0.38-0.15-0.813-0.057-1.097,0.239l-3.379,3.549c-2.558-2.116-5.76-3.276-9.134-3.276C6.794,0.647,0.313,7,0.313,15h4
		C4.313,10,9,4.627,14.762,4.627z"/>
</svg>
