<svg xmlns="http://www.w3.org/2000/svg" viewBox="0 0 30 30">
<style type="text/css">
	.icon{fill:#009a3b;}
</style>
<path class="icon" d="M27.8,6.5h-3V2.6c0-1.4-1.3-2.6-3-2.6H7.7c-1.6,0-3,1.2-3,2.6v3.9H2.2C1,6.5,0.1,7.3,0.1,8.2v13.9
	c0,0.9,1,1.7,2.1,1.7h2.5v3.6c0,1.4,1.3,2.6,3,2.6h14.1c1.6,0,3-1.2,3-2.6v-3.6h3c1.2,0,2.1-0.8,2.1-1.7V8.2
	C29.9,7.3,28.9,6.5,27.8,6.5z M7.7,3.6c0-0.3,0.4-0.6,1-0.6h12.1c0.6,0,1,0.3,1,0.6v2.9H7.7V3.6z M21.8,26.4c0,0.3-0.4,0.6-1,0.6
	H8.7c-0.6,0-1-0.3-1-0.6v-9.5h14.1V26.4z M24.4,13.8c-1.1,0-1.9-0.9-1.9-1.9c0-1.1,0.9-1.9,1.9-1.9c1.1,0,1.9,0.9,1.9,1.9
	C26.4,12.9,25.5,13.8,24.4,13.8z"/>
<path class="icon" d="M17.8,24.2h-6.6c-0.8,0-1.3-0.5-1.3-1.3c0-0.8,0.5-1.3,1.3-1.3h6.6c0.8,0,1.3,0.5,1.3,1.3
	C19.1,23.7,18.6,24.2,17.8,24.2z"/>
</svg>
